# xmcd CD database file
#
# Track frame offsets:
#	180
#	22376
#	41824
#	60926
#	79954
#	108035
#	123165
#	146420
#	170355
#	204389
#	236491
#	248448
#
# Disc length: 3565 seconds
#
# Revision: 0
# Processed by: cddbd v1.4PL0 Copyright (c) Steve Scherf et al.
# Submitted via: CDex 1.51
#
DISCID=960deb0c
DTITLE=Tough Talk - progress
DYEAR=1900
DGENRE=Jazz
TTITLE0=Cantaloupe Island (Herbie Hancock)
TTITLE1=Take Me There (Grover Washington Jr.)
TTITLE2=Sunny (Bobby Hebb)
TTITLE3=Doxy ( Sonny Rollins)
TTITLE4=Mr. Magic (Ralph McDonald)
TTITLE5=Fever (John Davenport/Eddie Cooley)
TTITLE6=Put It Where You Want It (Joe Sample)
TTITLE7=Quiet Nights (Antonio Carlos Jobim)
TTITLE8=Hideaway (Dave Sanborn)
TTITLE9=Don't Forget The Poet (Enrico Pieranunzi)
TTITLE10=Bad Leroy Brown (Jimmy Croce)
TTITLE11=Tough Talk (The Crusaders)
EXTD=
EXTT0=
EXTT1=
EXTT2=
EXTT3=
EXTT4=
EXTT5=
EXTT6=
EXTT7=
EXTT8=
EXTT9=
EXTT10=
EXTT11=
PLAYORDER=
